<svg width="1024" height="1024" viewBox="0 0 1024 1024" fill="none" xmlns="http://www.w3.org/2000/svg" role="img" aria-labelledby="title desc">
  <title id="title">Flawless Studio avatar</title>
  <desc id="desc">A geometric monogram avatar for Flawless Studio using a dark background, teal accent, and interlocking F and S forms.</desc>
  <rect width="1024" height="1024" rx="220" fill="#171614"/>
  <rect x="28" y="28" width="968" height="968" rx="198" stroke="#393836" stroke-width="24"/>
  <circle cx="784" cy="204" r="272" fill="#01696F" opacity="0.26"/>
  <circle cx="242" cy="828" r="290" fill="#4F98A3" opacity="0.12"/>
  <path d="M276 252H704V376H420V476H658V600H420V772H276V252Z" fill="#CDCCCA"/>
  <path d="M742 252H578C492 252 430 304 430 382C430 458 484 496 586 524L638 538C684 550 706 568 706 600C706 638 672 658 612 658H438V772H622C764 772 850 704 850 590C850 506 798 454 686 424L628 408C590 398 574 384 574 360C574 330 600 316 650 316H742V252Z" fill="#4F98A3"/>
  <path d="M420 476H590C642 476 684 518 684 570V600H420V476Z" fill="#171614" opacity="0.92"/>
  <path d="M420 376H704V476H420V376Z" fill="#171614" opacity="0.92"/>
  <path d="M242 820H782" stroke="#4F98A3" stroke-width="18" stroke-linecap="round" opacity="0.85"/>
  <path d="M242 206H782" stroke="#393836" stroke-width="18" stroke-linecap="round"/>
</svg>
